<?xml version="1.0" encoding="UTF-8" standalone="no"?>
<svg
   xmlns:dc="http://purl.org/dc/elements/1.1/"
   xmlns:cc="http://creativecommons.org/ns#"
   xmlns:rdf="http://www.w3.org/1999/02/22-rdf-syntax-ns#"
   xmlns:svg="http://www.w3.org/2000/svg"
   xmlns="http://www.w3.org/2000/svg"
   xmlns:sodipodi="http://sodipodi.sourceforge.net/DTD/sodipodi-0.dtd"
   xmlns:inkscape="http://www.inkscape.org/namespaces/inkscape"
   version="1.1"
   x="0px"
   y="0px"
   viewBox="0 0 100 100"
   enable-background="new 0 0 100 100"
   xml:space="preserve"
   id="svg24"
   sodipodi:docname="demo.svg"
   inkscape:version="0.92.3 (2405546, 2018-03-11)"><metadata
     id="metadata30"><rdf:RDF><cc:Work
         rdf:about=""><dc:format>image/svg+xml</dc:format><dc:type
           rdf:resource="http://purl.org/dc/dcmitype/StillImage" /><dc:title></dc:title></cc:Work></rdf:RDF></metadata><defs
     id="defs28" /><sodipodi:namedview
     pagecolor="#ffffff"
     bordercolor="#666666"
     borderopacity="1"
     objecttolerance="10"
     gridtolerance="10"
     guidetolerance="10"
     inkscape:pageopacity="0"
     inkscape:pageshadow="2"
     inkscape:window-width="920"
     inkscape:window-height="480"
     id="namedview26"
     showgrid="false"
     inkscape:zoom="2.36"
     inkscape:cx="2.9661017"
     inkscape:cy="50"
     inkscape:window-x="0"
     inkscape:window-y="27"
     inkscape:window-maximized="0"
     inkscape:current-layer="svg24" /><g
     id="g22"><path
       d="M55.183,66.63l-5.387,2.641l-5.397-2.62c-0.745-0.362-1.643-0.051-2.004,0.694s-0.051,1.643,0.695,2.005l5.227,2.537   l0.049,24.673c0.001,0.827,0.673,1.497,1.5,1.497c0.001,0,0.002,0,0.003,0c0.829-0.002,1.499-0.675,1.497-1.503l-0.049-24.688   l5.188-2.543c0.744-0.364,1.052-1.263,0.687-2.007C56.825,66.573,55.926,66.265,55.183,66.63z"
       id="path2" /><path
       d="M56.497,62.275l-6.055-2.938c-0.416-0.202-0.899-0.201-1.315,0.003l-6.044,2.961c-0.744,0.364-1.051,1.263-0.687,2.007   c0.261,0.531,0.793,0.84,1.348,0.84c0.222,0,0.447-0.049,0.659-0.153l5.387-2.639l5.398,2.618c0.746,0.362,1.644,0.051,2.004-0.695   C57.554,63.534,57.243,62.637,56.497,62.275z"
       id="path4" /><path
       d="M35.767,64.957c0,0-0.001,0-0.002,0c-0.828,0.001-1.499,0.674-1.498,1.502l0.009,6.017   c-0.042,0.142-0.07,0.288-0.068,0.442c0.05,3.837-1.868,6.373-5.129,6.783c-0.822,0.104-1.405,0.854-1.301,1.676   c0.095,0.758,0.741,1.312,1.486,1.312c0.062,0,0.125-0.004,0.189-0.012c1.926-0.242,3.563-1.019,4.836-2.2l0.025,16.114   c0.001,0.828,0.672,1.498,1.5,1.498c0,0,0.001,0,0.002,0c0.828-0.001,1.499-0.674,1.498-1.502l-0.047-30.133   C37.265,65.627,36.594,64.957,35.767,64.957z"
       id="path6" /><path
       d="M70.398,79.701c-3.555-0.447-5.138-3.736-5.13-6.799c0-0.125-0.02-0.245-0.048-0.361l-0.01-6.15   c-0.001-0.828-0.673-1.498-1.5-1.498c-0.001,0-0.002,0-0.002,0c-0.829,0.001-1.499,0.674-1.498,1.502l0.047,30.131   c0.001,0.828,0.673,1.498,1.5,1.498c0.001,0,0.002,0,0.002,0c0.829-0.001,1.499-0.674,1.498-1.502l-0.025-16.131   c1.284,1.232,2.918,2.052,4.791,2.287c0.063,0.008,0.127,0.012,0.189,0.012c0.745,0,1.391-0.555,1.486-1.312   C71.803,80.555,71.22,79.805,70.398,79.701z"
       id="path8" /><path
       d="M94.687,59.744c-1.425-2.138-5.703-5.361-11.692-2.254c-0.735,0.382-1.022,1.287-0.642,2.022   c0.382,0.735,1.286,1.021,2.022,0.642c3.877-2.011,6.289-0.367,7.297,0.644l-0.838,1.759c-0.356,0.748-0.038,1.643,0.71,1.999   c0.208,0.099,0.428,0.146,0.644,0.146c0.561,0,1.099-0.315,1.355-0.855l1.25-2.625C95.02,60.744,94.979,60.184,94.687,59.744z"
       id="path10" /><path
       d="M89.238,65.433c-0.737-0.372-1.641-0.077-2.016,0.662l-0.169,0.334c-0.426-0.201-0.861-0.366-1.274-0.522   c-1.767-0.668-2.387-1.013-2.409-2.246c-0.015-0.828-0.68-1.477-1.527-1.473c-0.828,0.016-1.487,0.698-1.473,1.527   c0.006,0.34,0.044,0.648,0.098,0.941h-7.396c-0.828,0-1.5,0.672-1.5,1.5s0.672,1.5,1.5,1.5h9.416c0.74,0.489,1.553,0.8,2.23,1.056   c0.722,0.273,1.469,0.556,1.786,0.912c0.287,0.321,0.695,0.501,1.119,0.501c0.064,0,0.13-0.004,0.195-0.013   c0.491-0.064,0.919-0.368,1.144-0.811l0.938-1.854C90.274,66.709,89.978,65.807,89.238,65.433z"
       id="path12" /><path
       d="M21.026,62.037h15.303c0.065,0,0.128-0.011,0.191-0.02c0.045,0.004,0.088,0.02,0.134,0.02c0.199,0,0.401-0.039,0.595-0.123   l12.536-5.43l12.557,5.381c0.204,0.087,0.417,0.121,0.626,0.116c0.123,0.032,0.25,0.056,0.384,0.056h15.303   c0.828,0,1.5-0.672,1.5-1.5s-0.672-1.5-1.5-1.5H63.36l-6.103-2.614l-0.028-14.754c0.622,0.302,1.308,0.474,2.017,0.474   c0.423,0,0.854-0.059,1.28-0.182c0.53-0.153,0.837-0.708,0.684-1.238c-0.153-0.529-0.701-0.834-1.238-0.684   c-1.033,0.297-2.1-0.071-2.747-0.848l-0.012-6.348c-0.002-0.828-0.673-1.497-1.5-1.497c-0.001,0-0.002,0-0.003,0   c-0.828,0.001-1.499,0.674-1.497,1.503l0.043,22.287l-3.883-1.663c-0.38-0.163-0.809-0.162-1.187,0.002l-4.414,1.911l-0.006-3.275   c4.596-1.527,7.316-4.627,7.439-4.771c0.36-0.418,0.312-1.048-0.104-1.408c-0.418-0.361-1.048-0.314-1.41,0.102   c-0.025,0.029-2.235,2.535-5.929,3.956l-0.008-4.144c4.604-1.526,7.328-4.632,7.452-4.775c0.36-0.418,0.312-1.048-0.104-1.408   c-0.418-0.361-1.048-0.315-1.41,0.102c-0.025,0.029-2.24,2.541-5.941,3.961l-0.008-4.146c4.611-1.524,7.34-4.636,7.464-4.779   c0.36-0.418,0.312-1.048-0.104-1.408c-0.418-0.361-1.048-0.315-1.41,0.102c-0.025,0.029-2.245,2.547-5.953,3.966l-0.009-4.594   c-0.001-0.828-0.673-1.497-1.5-1.497c-0.001,0-0.002,0-0.003,0c-0.829,0.001-1.499,0.674-1.497,1.503l0.003,1.571   c-5.423-6.975-5.466-12.082-4.395-15.273c1.327-3.954,5.226-7.03,9.933-7.837c3.268-0.558,6.213,0.09,8.206,1.723h-2.99   c-0.828,0-1.5,0.671-1.5,1.5s0.672,1.5,1.5,1.5h11.189c0.069,0.074,0.192,0.288,0.192,0.625s-0.123,0.551-0.192,0.625h-7.189   c-0.828,0-1.5,0.671-1.5,1.5s0.672,1.5,1.5,1.5h1.297c0.101,0.619,0.613,1.1,1.26,1.1h0.909c0.646,0,1.159-0.481,1.26-1.1h0.513   l3.851,2.404l1.044,3.366l-2.261,3.421l-0.862,1.222l-5.888-2.629c-0.01-0.004-0.933-0.457-1.154-1.208   c-0.152-0.518,0.034-1.177,0.556-1.959c0.46-0.689,0.273-1.621-0.416-2.08c-0.688-0.459-1.621-0.274-2.08,0.416   c-1.038,1.557-1.353,3.062-0.937,4.472c0.618,2.097,2.613,3.014,2.823,3.104l7,3.125c0.197,0.088,0.405,0.13,0.61,0.13   c0.476,0,0.938-0.227,1.227-0.636l1.586-2.25c0.005-0.007,0.008-0.015,0.013-0.022c0.004-0.006,0.009-0.009,0.013-0.015   l4.392-6.644c0.224-0.337,0.301-0.751,0.215-1.146c-0.086-0.396-0.328-0.739-0.671-0.954l-4.921-3.073   c0.617-0.658,1.005-1.599,1.005-2.671c0-2.033-1.37-3.625-3.118-3.625H59.23c-0.027-0.271-0.126-0.539-0.307-0.77   c-2.588-3.31-7.133-4.771-12.161-3.91c-5.779,0.991-10.595,4.853-12.27,9.839c-1.433,4.269-1.334,11.226,6.829,20.392   c-1.32,0.587-2.976,1.621-3.254,3.194c-0.096,0.544,0.267,1.063,0.811,1.159c0.059,0.01,0.118,0.015,0.175,0.015   c0.476,0,0.898-0.341,0.984-0.826c0.096-0.544,0.848-1.096,1.707-1.529l0.008,4.075c-1.36,0.542-3.375,1.625-3.684,3.375   c-0.096,0.544,0.267,1.063,0.811,1.159c0.059,0.01,0.118,0.015,0.175,0.015c0.476,0,0.898-0.341,0.984-0.826   c0.097-0.546,0.855-1.102,1.719-1.535l0.008,4.076c-1.361,0.54-3.386,1.625-3.696,3.38c-0.096,0.544,0.267,1.062,0.811,1.158   c0.059,0.011,0.118,0.016,0.175,0.016c0.476,0,0.898-0.341,0.984-0.826c0.097-0.549,0.862-1.107,1.731-1.541l0.007,3.535   l-5.437,2.354c-0.003,0-0.006-0.001-0.01-0.001H21.026c-0.829,0-1.5,0.672-1.5,1.5S20.198,62.037,21.026,62.037z"
       id="path14" /><path
       d="M26.609,64.656h-7.396c0.054-0.293,0.091-0.602,0.098-0.941c0.015-0.829-0.645-1.512-1.473-1.527   c-0.836,0.026-1.511,0.646-1.526,1.473c-0.022,1.233-0.643,1.578-2.41,2.246c-0.413,0.156-0.848,0.321-1.274,0.522l-0.169-0.334   c-0.375-0.74-1.277-1.035-2.016-0.662c-0.739,0.374-1.035,1.276-0.661,2.016l0.938,1.854c0.224,0.442,0.652,0.746,1.144,0.811   c0.065,0.009,0.13,0.013,0.195,0.013c0.424,0,0.833-0.18,1.119-0.501c0.318-0.356,1.064-0.639,1.787-0.912   c0.677-0.256,1.49-0.566,2.229-1.056h9.417c0.829,0,1.5-0.672,1.5-1.5S27.438,64.656,26.609,64.656z"
       id="path16" /><path
       d="M8.01,60.797c0.996-0.995,3.416-2.656,7.297-0.643c0.737,0.382,1.641,0.095,2.022-0.642   c0.381-0.735,0.095-1.641-0.641-2.022c-5.989-3.104-10.267,0.115-11.692,2.254c-0.293,0.439-0.333,1-0.106,1.477l1.25,2.625   c0.257,0.54,0.795,0.855,1.355,0.855c0.216,0,0.436-0.047,0.644-0.146c0.748-0.356,1.065-1.251,0.709-1.999L8.01,60.797z"
       id="path18" /><path
       d="M40.692,20.229c-0.542-0.101-1.065,0.256-1.167,0.799c-0.337,1.798,0.6,3.323,1.426,4.669   c0.653,1.064,1.27,2.069,1.303,3.129c0.017,0.541,0.461,0.969,0.999,0.969c0.01,0,0.021,0,0.031,0   c0.552-0.017,0.986-0.479,0.969-1.03c-0.049-1.591-0.872-2.931-1.597-4.113c-0.729-1.188-1.36-2.214-1.165-3.255   C41.592,20.853,41.235,20.331,40.692,20.229z"
       id="path20" /></g></svg>