<?xml version="1.0" encoding="UTF-8" standalone="no"?>
<svg
   xmlns:dc="http://purl.org/dc/elements/1.1/"
   xmlns:cc="http://creativecommons.org/ns#"
   xmlns:rdf="http://www.w3.org/1999/02/22-rdf-syntax-ns#"
   xmlns:svg="http://www.w3.org/2000/svg"
   xmlns="http://www.w3.org/2000/svg"
   xmlns:sodipodi="http://sodipodi.sourceforge.net/DTD/sodipodi-0.dtd"
   xmlns:inkscape="http://www.inkscape.org/namespaces/inkscape"
   version="1.1"
   x="0px"
   y="0px"
   viewBox="151 101 100 100"
   style="enable-background:new 151 101 100 100;"
   xml:space="preserve"
   id="svg18"
   sodipodi:docname="helmet.svg"
   inkscape:version="0.92.3 (2405546, 2018-03-11)"><metadata
     id="metadata24"><rdf:RDF><cc:Work
         rdf:about=""><dc:format>image/svg+xml</dc:format><dc:type
           rdf:resource="http://purl.org/dc/dcmitype/StillImage" /><dc:title></dc:title></cc:Work></rdf:RDF></metadata><defs
     id="defs22" /><sodipodi:namedview
     pagecolor="#ffffff"
     bordercolor="#666666"
     borderopacity="1"
     objecttolerance="10"
     gridtolerance="10"
     guidetolerance="10"
     inkscape:pageopacity="0"
     inkscape:pageshadow="2"
     inkscape:window-width="920"
     inkscape:window-height="480"
     id="namedview20"
     showgrid="false"
     inkscape:zoom="2.36"
     inkscape:cx="2.9661017"
     inkscape:cy="50"
     inkscape:window-x="0"
     inkscape:window-y="27"
     inkscape:window-maximized="0"
     inkscape:current-layer="svg18" /><g
     id="g16"
     style="fill:#00ff00"><path
       d="m 219.8,113.7 -18.7,-3.2 -18.7,3.2 -5.1,25.8 v 4.7 l 2.6,25.7 21.3,7.5 21.3,-7.5 2.6,-25.7 v -4.7 z m -31.2,52 h -1.5 v -1 h -1 v -1.5 h 1 v -1 h 1.5 z m 4.6,1.7 h -1.5 v -1 h -1 v -1.5 h 1 v -1 h 1.5 z m 0,-6.7 h -1.5 v -1 h -1 v -1.5 h 1 v -1 h 1.5 z m 5.3,10.2 H 197 v -1 h -1 v -1.5 h 1 v -1 h 1.5 z m 0,-6.7 H 197 v -1 h -1 v -1.5 h 1 v -1 h 1.5 z m 0,-6.7 H 197 v -1 h -1 V 155 h 1 v -1 h 1.5 z m -0.7,-12.9 -15.9,-1.9 V 139 l 15,2.8 z m 22.7,-1.8 -15.9,1.9 0.9,-2.8 15,-2.8 z"
       id="path2"
       inkscape:connector-curvature="0"
       style="fill:#00ff00" /><path
       d="m 178.7,174.1 c 0,0 -4.8,-6.1 -10.2,-3.2 -6.6,3.6 -2.5,7.6 -0.3,9.3 3.6,2.9 18.4,4.8 25,5.7 0.6,0.1 0.8,-0.7 0.3,-1 -3.5,-1.7 -8.5,-4.7 -14.8,-10.8 z"
       id="path4"
       inkscape:connector-curvature="0"
       style="fill:#00ff00" /><path
       d="m 162.6,177.3 c -0.5,-0.9 -1.5,-1.3 -2.4,-1 -1.7,0.5 -3.9,1.7 -3.7,4.7 0.4,4.3 7.1,8.5 15.4,8.9 4.9,0.2 21.1,-0.1 24.8,-0.2 0.4,0 0.7,-0.3 0.7,-0.7 0,-0.2 0,-0.3 0,-0.5 0,-0.4 -0.3,-0.7 -0.6,-0.8 -3.3,-0.5 -17.8,-2.6 -23.6,-3.5 -6.5,-1.1 -9.4,-4.8 -10.6,-6.9 z"
       id="path6"
       inkscape:connector-curvature="0"
       style="fill:#00ff00" /><ellipse
       transform="matrix(0.9059,0.4235,-0.4235,0.9059,98.6619,-70.4294)"
       cx="207.8"
       cy="186.8"
       rx="5.4000001"
       ry="7.3000002"
       id="ellipse8"
       style="fill:#00ff00" /><path
       d="m 211.3,179.4 c 3.1,1.5 4.1,6 2.2,10.1 -1.9,4.1 -6,6.2 -9.1,4.8 -3.1,-1.5 -4.1,-6 -2.2,-10.1 1.9,-4.1 6,-6.3 9.1,-4.8 m 0.8,-1.8 c -4.1,-1.9 -9.3,0.7 -11.7,5.7 -2.4,5.1 -1,10.7 3.1,12.6 4.1,1.9 9.3,-0.7 11.7,-5.7 2.4,-5 1,-10.6 -3.1,-12.6 z"
       id="path10"
       inkscape:connector-curvature="0"
       style="fill:#00ff00" /><path
       d="m 215.9,175 c -0.8,0.4 -1.1,1.5 -0.4,2.1 1.4,1.3 2.9,3.8 2.5,8.7 -0.2,2 -0.5,3.4 -0.9,4.4 -0.3,0.8 0.3,1.7 1.2,1.7 6.7,-0.1 28.2,-0.6 28.2,-4.9 0,-3.8 -2.4,-1.6 -3.5,-4.9 -1.1,-3.4 -4,-8.5 -11.1,-10.1 -5.2,-1.2 -12.4,1.4 -16,3 z"
       id="path12"
       inkscape:connector-curvature="0"
       style="fill:#00ff00" /><path
       d="m 199.9,180.6 c -0.6,0.8 -1.4,1.9 -1.8,3.3 -0.3,0.8 -1.2,1.2 -1.9,0.8 -6,-2.9 -11.7,-7.3 -15.3,-11.4 -0.2,-0.3 0,-0.6 0.4,-0.5 l 18.3,6.3 c 0.5,0.2 0.7,0.9 0.3,1.5 z"
       id="path14"
       inkscape:connector-curvature="0"
       style="fill:#00ff00" /></g></svg>