<?xml version="1.0" encoding="UTF-8" standalone="no"?>
<svg
   xmlns:dc="http://purl.org/dc/elements/1.1/"
   xmlns:cc="http://creativecommons.org/ns#"
   xmlns:rdf="http://www.w3.org/1999/02/22-rdf-syntax-ns#"
   xmlns:svg="http://www.w3.org/2000/svg"
   xmlns="http://www.w3.org/2000/svg"
   xmlns:sodipodi="http://sodipodi.sourceforge.net/DTD/sodipodi-0.dtd"
   xmlns:inkscape="http://www.inkscape.org/namespaces/inkscape"
   version="1.1"
   x="0px"
   y="0px"
   viewBox="0 0 100 100"
   style="enable-background:new 0 0 100 100;"
   xml:space="preserve"
   id="svg4"
   sodipodi:docname="plus.svg"
   inkscape:version="0.92.3 (2405546, 2018-03-11)"><metadata
     id="metadata10"><rdf:RDF><cc:Work
         rdf:about=""><dc:format>image/svg+xml</dc:format><dc:type
           rdf:resource="http://purl.org/dc/dcmitype/StillImage" /><dc:title></dc:title></cc:Work></rdf:RDF></metadata><defs
     id="defs8" /><sodipodi:namedview
     pagecolor="#ffffff"
     bordercolor="#666666"
     borderopacity="1"
     objecttolerance="10"
     gridtolerance="10"
     guidetolerance="10"
     inkscape:pageopacity="0"
     inkscape:pageshadow="2"
     inkscape:window-width="920"
     inkscape:window-height="480"
     id="namedview6"
     showgrid="false"
     inkscape:zoom="2.36"
     inkscape:cx="2.9661017"
     inkscape:cy="50"
     inkscape:window-x="0"
     inkscape:window-y="27"
     inkscape:window-maximized="0"
     inkscape:current-layer="svg4" /><path
     d="M50,1.7C23.3,1.7,1.7,23.3,1.7,50c0,26.7,21.6,48.3,48.3,48.3S98.3,76.7,98.3,50C98.3,23.3,76.7,1.7,50,1.7z   M73.9,52.8H52.1v21.8c0,1.5-1.2,2.7-2.7,2.7s-2.7-1.2-2.7-2.7V52.8H25c-1.5,0-2.7-1.2-2.7-2.7c0-1.5,1.2-2.7,2.7-2.7h21.8V25.6  c0-1.5,1.2-2.7,2.7-2.7s2.7,1.2,2.7,2.7v21.8h21.8c1.5,0,2.7,1.2,2.7,2.7C76.6,51.6,75.4,52.8,73.9,52.8z"
     id="path2"
     style="fill:#008000" /></svg>