<?xml version="1.0" encoding="UTF-8" standalone="no"?>
<svg
   xmlns:dc="http://purl.org/dc/elements/1.1/"
   xmlns:cc="http://creativecommons.org/ns#"
   xmlns:rdf="http://www.w3.org/1999/02/22-rdf-syntax-ns#"
   xmlns:svg="http://www.w3.org/2000/svg"
   xmlns="http://www.w3.org/2000/svg"
   xmlns:sodipodi="http://sodipodi.sourceforge.net/DTD/sodipodi-0.dtd"
   xmlns:inkscape="http://www.inkscape.org/namespaces/inkscape"
   version="1.1"
   x="0px"
   y="0px"
   viewBox="0 0 400 100"
   enable-background="new 0 0 100 100"
   xml:space="preserve"
   id="svg18"
   sodipodi:docname="fleurs.svg"
   width="400"
   height="100"
   inkscape:version="0.92.3 (2405546, 2018-03-11)"><metadata
     id="metadata24"><rdf:RDF><cc:Work
         rdf:about=""><dc:format>image/svg+xml</dc:format><dc:type
           rdf:resource="http://purl.org/dc/dcmitype/StillImage" /><dc:title></dc:title></cc:Work></rdf:RDF></metadata><defs
     id="defs22" /><sodipodi:namedview
     pagecolor="#ffffff"
     bordercolor="#666666"
     borderopacity="1"
     objecttolerance="10"
     gridtolerance="10"
     guidetolerance="10"
     inkscape:pageopacity="0"
     inkscape:pageshadow="2"
     inkscape:window-width="1600"
     inkscape:window-height="836"
     id="namedview20"
     showgrid="false"
     inkscape:zoom="3.337544"
     inkscape:cx="353.85057"
     inkscape:cy="58.849222"
     inkscape:window-x="0"
     inkscape:window-y="27"
     inkscape:window-maximized="1"
     inkscape:current-layer="svg18" /><g
     display="none"
     id="g4"
     style="display:none"><rect
       x="-645.87201"
       y="-573.875"
       display="inline"
       width="1424.929"
       height="1317.875"
       id="rect2"
       style="display:inline;fill:#000000" /></g><g
     id="g16"
     transform="matrix(0.54633551,0,0,0.54633551,355.2127,45.092664)"
     style="fill:#ff0000"><path
       d="m 52.35,23.901 c 3.957,5.369 6.303,11.971 6.303,19.057 v 8.321 c 0,2.135 -0.749,4.096 -1.994,5.642 C 66.631,53.656 73.855,44.268 73.855,33.22 V 12.722 C 73.078,12.753 72.02,12.76 70.581,12.768 62.672,12.815 55.8,17.335 52.35,23.901 Z"
       id="path6"
       inkscape:connector-curvature="0"
       style="fill:#ff0000" /><path
       d="m 38.432,95 h 8.941 L 36.623,83.162 c -0.397,-0.436 -0.364,-1.112 0.072,-1.508 0.437,-0.396 1.113,-0.363 1.509,0.073 l 10.514,11.577 v -8.589 c 0,-0.652 -0.062,-1.289 -0.152,-1.917 h 2.865 V 60.851 H 48.289 V 81.395 C 46.803,75.538 41.502,71.187 35.19,71.187 H 24.903 V 81.472 C 24.903,88.931 30.972,95 38.432,95 Z"
       id="path8"
       inkscape:connector-curvature="0"
       style="fill:#ff0000" /><path
       d="m 51.283,84.715 v 8.199 L 61.81,81.713 c 0.405,-0.43 1.08,-0.451 1.51,-0.047 0.43,0.404 0.45,1.079 0.046,1.509 L 52.253,95 h 9.315 c 7.46,0 13.529,-6.069 13.529,-13.529 V 71.186 H 64.811 c -7.46,0 -13.528,6.069 -13.528,13.529 z"
       id="path10"
       inkscape:connector-curvature="0"
       style="fill:#ff0000" /><path
       d="m 49.639,58.157 c 3.793,0 6.879,-3.086 6.879,-6.879 v -8.321 c 0,-16.308 -13.301,-29.869 -29.649,-30.23 -0.261,-0.005 -0.501,-0.01 -0.723,-0.018 v 21.954 c -0.001,12.955 10.538,23.494 23.493,23.494 z"
       id="path12"
       inkscape:connector-curvature="0"
       style="fill:#ff0000" /><path
       d="m 50.915,22.103 c 2.274,-3.93 5.682,-7.117 9.778,-9.126 L 54.631,6.915 C 53.354,5.638 51.677,5 50,5 48.323,5 46.646,5.638 45.369,6.915 l -6.345,6.345 c 4.611,2.008 8.673,5.06 11.891,8.843 z"
       id="path14"
       inkscape:connector-curvature="0"
       style="fill:#ff0000" /></g></svg>