<?xml version="1.0" encoding="UTF-8" standalone="no"?>
<svg
   xmlns:dc="http://purl.org/dc/elements/1.1/"
   xmlns:cc="http://creativecommons.org/ns#"
   xmlns:rdf="http://www.w3.org/1999/02/22-rdf-syntax-ns#"
   xmlns:svg="http://www.w3.org/2000/svg"
   xmlns="http://www.w3.org/2000/svg"
   xmlns:sodipodi="http://sodipodi.sourceforge.net/DTD/sodipodi-0.dtd"
   xmlns:inkscape="http://www.inkscape.org/namespaces/inkscape"
   version="1.1"
   x="0px"
   y="0px"
   viewBox="0 0 400 100"
   enable-background="new 0 0 100 100"
   xml:space="preserve"
   id="svg38"
   sodipodi:docname="foin.svg"
   width="400"
   height="100"
   inkscape:version="0.92.3 (2405546, 2018-03-11)"><metadata
     id="metadata44"><rdf:RDF><cc:Work
         rdf:about=""><dc:format>image/svg+xml</dc:format><dc:type
           rdf:resource="http://purl.org/dc/dcmitype/StillImage" /><dc:title></dc:title></cc:Work></rdf:RDF></metadata><defs
     id="defs42"><pattern
       patternUnits="userSpaceOnUse"
       width="104.86753"
       height="82.695541"
       patternTransform="translate(295.42682,19.10219)"
       id="pattern935"><rect
         y="0"
         x="0"
         height="82.695541"
         width="104.86753"
         id="rect889"
         style="opacity:0.95;fill:#ffff00;fill-opacity:1;fill-rule:nonzero;stroke:none;stroke-width:4.30000019;stroke-linecap:round;stroke-miterlimit:4;stroke-dasharray:none;stroke-dashoffset:0;stroke-opacity:1" /></pattern></defs><sodipodi:namedview
     pagecolor="#ffffff"
     bordercolor="#666666"
     borderopacity="1"
     objecttolerance="10"
     gridtolerance="10"
     guidetolerance="10"
     inkscape:pageopacity="0"
     inkscape:pageshadow="2"
     inkscape:window-width="1600"
     inkscape:window-height="836"
     id="namedview40"
     showgrid="false"
     inkscape:zoom="1.668772"
     inkscape:cx="237.08627"
     inkscape:cy="80.499395"
     inkscape:window-x="0"
     inkscape:window-y="27"
     inkscape:window-maximized="1"
     inkscape:current-layer="svg38" /><path
     display="none"
     d="m 66.4,59.5 -1.7,1.7 C 58.3,54.7 31,26.9 27.8,23.8 24.2,20.2 24.7,12.8 20.4,8.4 c -1,-1 -2.6,-1 -3.6,0 l -4,4 -4,4 c -1,1 -1,2.6 0,3.6 4.4,4.4 11.8,3.8 15.4,7.4 3.2,3.2 30.9,30.5 37.4,36.9 L 59.9,66 c -2.9,2.9 -1.7,6.4 1.2,9.3 L 77.5,91.7 78.4,90.8 64.5,74.2 c -1.6,-2.1 -1.9,-3.4 -1.3,-4.3 l 18.8,17.3 1,-1 -17,-19.1 0.7,-0.7 0.7,-0.7 19.2,17 1,-1 -17.3,-18.9 c 0.9,-0.6 2.2,-0.3 4.3,1.3 L 91.2,78 92.1,77.1 75.7,60.7 C 72.8,57.8 69.3,56.6 66.4,59.5 Z M 12.5,19.9 16.4,16 20.3,12.1 c 4.4,4.4 0.4,8.2 0.4,8.2 0,0 -3.9,3.9 -8.2,-0.4 z"
     id="path2"
     inkscape:connector-curvature="0"
     style="display:none;fill:#000000" /><g
     display="none"
     id="g16"
     style="display:none"><polygon
       display="inline"
       points="71.1,51.7 70.9,53.1 67.7,51.1 70.8,53.9 69.8,59.9 64,53.2 71.3,65.2 71.1,54.2 80,62.1 74.7,49.7 75.6,55.9 71.1,53.2 "
       id="polygon4"
       style="display:inline;fill:#000000" /><path
       display="inline"
       d="m 87.7,69.9 5.9,1.2 -0.1,-1.1 c 0,-0.4 -0.7,-9.6 -7.3,-17.4 l 3,1 -0.7,-1.8 C 88.4,51.5 85.1,43.6 83.1,40.6 81.7,38.5 80.5,36.9 79.6,35.8 l 2.5,0.7 -1.5,-2.1 C 80,33.6 67.9,17.1 50.1,17.1 32.3,17.1 20.2,33.6 19.7,34.3 l -1.5,2.1 2.5,-0.7 c -0.9,1.1 -2.1,2.7 -3.5,4.8 -2,3 -5.3,10.8 -5.4,11.2 l -0.7,1.8 3,-1 c -6.6,7.9 -7.3,17 -7.3,17.4 l -0.1,1.2 5.9,-1.2 -1.4,1.8 12.2,0.8 -0.9,2.1 13.6,-0.9 -0.8,3 6.8,-3.1 13,2.1 3.1,-2.1 6.6,3 -0.8,-3 13.6,0.9 -0.9,-2.1 12.2,-0.8 z m -13.4,1 1.3,2.3 -13.8,-1.5 1.7,3 -5.2,-3 -3.1,3 -13.2,-2.9 -4.4,2.3 1.1,-2.4 -13.8,1.5 1.3,-2.3 -12.6,-0.1 3.4,-3.6 -8.1,1.7 c 0.5,-3.1 2.3,-11.4 9,-17.6 l 2.9,-2.8 -6.4,2.1 c 1.1,-2.5 3.1,-7 4.5,-9 3.4,-5 5.4,-6.8 5.4,-6.8 l 2.7,-2.5 -4,0.9 c 3.9,-4.5 14,-14.3 27.1,-14.3 13.1,0 23.2,9.9 27.1,14.3 l -3.8,-1.1 2.7,2.5 c 0,0 2,1.9 5.4,6.8 1.4,2 3.4,6.5 4.5,9 l -6.4,-2.1 2.9,2.8 c 6.7,6.3 8.5,14.6 9,17.6 l -8.1,-1.7 2.8,3.6 z"
       id="path6"
       inkscape:connector-curvature="0"
       style="display:inline;fill:#000000" /><polygon
       display="inline"
       points="26.6,42.5 35,33.9 29.1,38.2 29.4,34.5 "
       id="polygon8"
       style="display:inline;fill:#000000" /><polygon
       display="inline"
       points="54.1,26.7 66,32.3 61.1,25 61.6,28.5 "
       id="polygon10"
       style="display:inline;fill:#000000" /><polygon
       display="inline"
       points="49.7,41.5 48.3,40.5 49.4,41.7 45.5,46.3 43.4,40 43.6,51.7 49.6,41.9 55.4,48.6 55.4,40 53.6,44.3 49.8,41.6 50.5,40.5 "
       id="polygon12"
       style="display:inline;fill:#000000" /><polygon
       display="inline"
       points="39.6,54.3 30.8,60.2 30.8,52.8 27.8,65.3 "
       id="polygon14"
       style="display:inline;fill:#000000" /></g><g
     id="g36"
     transform="translate(300.82,22.771236)"
     style="fill:#000000;fill-opacity:1"><polygon
       points="71.3,53.1 71.1,53 67.8,51.1 71,53.8 71.3,54.2 80.3,62.1 75,49.6 75.9,55.9 "
       id="polygon18"
       style="fill:#000000;fill-opacity:1" /><path
       d="m 88,69.9 5.9,1.2 -0.1,-1.2 c 0,-0.4 -0.7,-9.6 -7.3,-17.5 l 3,1 -0.7,-1.8 C 88.7,51.3 85.4,43.4 83.4,40.4 82,38.3 80.8,36.7 79.8,35.6 l 2.5,0.7 -1.5,-2.1 C 80.3,33.5 68.2,16.9 50.3,16.9 c -17.9,0 -30,16.6 -30.5,17.3 l -1.5,2.1 2.5,-0.7 c -0.9,1.1 -2.1,2.7 -3.6,4.8 -2,3 -5.3,10.9 -5.4,11.2 l -0.7,1.8 3,-1 C 7.5,60.3 6.8,69.5 6.8,69.9 l -0.1,1.2 5.9,-1.2 -1.4,1.8 12.2,0.8 -0.9,2.1 13.7,-0.9 -0.8,3 6.8,-3.1 13.2,1.9 3,-1.8 6.6,3 -0.8,-3 13.8,0.9 -0.9,-2.1 12.2,-0.8 z m -13.5,1 1.3,2.3 -13.9,-1.5 1.7,3 -5.3,-3.1 -3.2,2.6 L 42,71.8 37.5,74.2 38.6,71.8 24.7,73.3 26,71 14,70.9 16.8,67.3 8.6,69 c 0.5,-3.1 2.3,-11.4 9,-17.7 l 2.9,-2.8 -6.5,2.1 c 1.1,-2.5 3.1,-7.1 4.5,-9.1 3.4,-5 5.4,-6.9 5.4,-6.9 l 2.8,-2.5 -3.7,1 c 3.9,-4.5 14.1,-14.4 27.2,-14.4 13.1,0 23.3,9.9 27.2,14.4 l -3.7,-1.1 2.7,2.5 c 0,0 2,1.9 5.4,6.9 1.4,2 3.4,6.5 4.5,9.1 l -6.5,-2.1 2.9,2.8 c 6.7,6.3 8.6,14.6 9,17.7 l -8.2,-1.7 2.8,3.6 z"
       id="path20"
       inkscape:connector-curvature="0"
       style="fill:#000000;fill-opacity:1" /><polygon
       points="29.5,34.3 26.7,42.4 35.1,33.8 29.2,38 "
       id="polygon22"
       style="fill:#000000;fill-opacity:1" /><polygon
       points="61.3,24.8 61.8,28.4 54.3,26.5 66.2,32.2 "
       id="polygon24"
       style="fill:#000000;fill-opacity:1" /><polygon
       points="48.4,40.4 49.5,41.6 45.6,46.2 43.5,39.8 43.7,51.6 49.7,41.8 55.6,48.5 55.6,39.8 53.8,44.2 50,41.5 50.6,40.4 49.8,41.3 "
       id="polygon26"
       style="fill:#000000;fill-opacity:1" /><polygon
       points="27.9,65.3 39.7,54.2 30.9,60.2 30.9,52.8 "
       id="polygon28"
       style="fill:#000000;fill-opacity:1" /><polygon
       points="50.5,66.6 50.7,66.7 50.8,66.6 "
       id="polygon30"
       style="fill:#000000;fill-opacity:1" /><polygon
       points="54.4,69 54.4,68.8 54.2,68.8 54.2,68.9 "
       id="polygon32"
       style="fill:#000000;fill-opacity:1" /><path
       d="M 74.7,40 C 75,39.6 74.8,39 74.4,38.8 L 72.7,37.7 71,36.6 c -0.4,-0.3 -1,-0.1 -1.2,0.3 -1.2,1.9 -0.4,4.4 -1.4,5.9 -0.9,1.4 -8.1,13.1 -9.9,15.9 l -0.7,-0.5 c -1.2,-0.8 -2.4,-0.1 -3.1,1.2 L 54,60.6 v 1.3 l 0.5,-0.1 0.9,-1.2 c 0.6,-0.7 1,-0.9 1.4,-0.8 l -1,1.7 0.3,0.9 0.6,-0.1 1.3,-1.8 0.3,0.2 0.3,0.2 -1,1.8 0.4,1.6 1.8,-2.6 c 0.3,0.3 0.3,0.7 -0.1,1.6 l -0.1,0.2 h 1.3 v -0.1 c 0.8,-1.2 0.9,-2.6 -0.3,-3.3 L 59.9,59.6 C 61.7,56.9 69.1,45.2 70,43.8 71,42.3 73.6,41.9 74.7,40 Z m -4.6,-1.8 1.7,1 1.7,1 c -1.2,1.9 -2.8,0.8 -2.8,0.8 0,0 -1.7,-1 -0.6,-2.8 z"
       id="path34"
       inkscape:connector-curvature="0"
       style="fill:#000000;fill-opacity:1" /></g></svg>