<?xml version="1.0" encoding="UTF-8" standalone="no"?>
<svg
   xmlns:dc="http://purl.org/dc/elements/1.1/"
   xmlns:cc="http://creativecommons.org/ns#"
   xmlns:rdf="http://www.w3.org/1999/02/22-rdf-syntax-ns#"
   xmlns:svg="http://www.w3.org/2000/svg"
   xmlns="http://www.w3.org/2000/svg"
   xmlns:sodipodi="http://sodipodi.sourceforge.net/DTD/sodipodi-0.dtd"
   xmlns:inkscape="http://www.inkscape.org/namespaces/inkscape"
   version="1.1"
   x="0px"
   y="0px"
   viewBox="0 0 100 100"
   enable-background="new 0 0 100 100"
   xml:space="preserve"
   id="svg12"
   sodipodi:docname="gos.svg"
   inkscape:version="0.92.3 (2405546, 2018-03-11)"><metadata
     id="metadata18"><rdf:RDF><cc:Work
         rdf:about=""><dc:format>image/svg+xml</dc:format><dc:type
           rdf:resource="http://purl.org/dc/dcmitype/StillImage" /><dc:title></dc:title></cc:Work></rdf:RDF></metadata><defs
     id="defs16" /><sodipodi:namedview
     pagecolor="#ffffff"
     bordercolor="#666666"
     borderopacity="1"
     objecttolerance="10"
     gridtolerance="10"
     guidetolerance="10"
     inkscape:pageopacity="0"
     inkscape:pageshadow="2"
     inkscape:window-width="1194"
     inkscape:window-height="592"
     id="namedview14"
     showgrid="false"
     inkscape:zoom="2.36"
     inkscape:cx="2.9661017"
     inkscape:cy="50"
     inkscape:window-x="0"
     inkscape:window-y="27"
     inkscape:window-maximized="0"
     inkscape:current-layer="svg12" /><g
     id="g10"
     style="fill:#aa0000"><path
       d="m 87.618,67.781 c 0.035,-0.127 0.06,-0.258 0.06,-0.396 0,-4.298 -3.497,-7.795 -7.795,-7.795 H 57.285 L 57.256,39.092 c 0,-0.073 -0.027,-0.137 -0.042,-0.205 0.557,-0.86 0.949,-1.81 1.163,-2.812 4.73,-2.251 8.396,-6.315 10.097,-11.292 0.108,-0.315 0.108,-0.656 0,-0.971 -0.864,-2.528 -2.218,-4.787 -3.925,-6.694 0.361,-0.965 0.553,-1.953 0.553,-2.944 0,-3.053 -1.646,-5.903 -4.297,-7.438 -0.465,-0.27 -1.039,-0.27 -1.504,0 -1.809,1.048 -3.154,2.727 -3.82,4.672 -1.741,-0.508 -3.567,-0.791 -5.445,-0.791 -1.879,0 -3.706,0.283 -5.447,0.791 -0.664,-1.948 -2.01,-3.625 -3.821,-4.673 -0.465,-0.269 -1.039,-0.269 -1.503,0 -2.65,1.535 -4.297,4.385 -4.297,7.438 0,1.001 0.192,1.987 0.553,2.944 -1.707,1.908 -3.059,4.166 -3.923,6.695 -0.107,0.314 -0.107,0.656 0,0.97 1.708,4.997 5.411,9.099 10.177,11.34 0.208,0.939 0.579,1.815 1.069,2.61 -0.042,0.111 -0.071,0.229 -0.071,0.354 L 42.802,59.59 H 20.924 c -4.298,0 -7.795,3.497 -7.795,7.795 0,0.14 0.025,0.273 0.062,0.401 -0.028,0.2 -0.062,0.398 -0.062,0.606 0,2.443 1.988,4.432 4.433,4.432 2.445,0 4.433,-1.988 4.433,-4.432 0,-2.438 -1.979,-4.423 -4.417,-4.432 0.865,-0.846 2.044,-1.371 3.346,-1.371 h 58.959 c 1.302,0 2.481,0.525 3.346,1.371 -2.435,0.01 -4.414,1.993 -4.414,4.432 0,2.443 1.988,4.432 4.432,4.432 2.444,0 4.434,-1.988 4.434,-4.432 -10e-4,-0.208 -0.035,-0.409 -0.063,-0.611 z m -68.624,0.612 c 0,0.789 -0.643,1.432 -1.433,1.432 -0.79,0 -1.433,-0.643 -1.433,-1.432 0,-0.79 0.643,-1.434 1.433,-1.434 0.79,0 1.433,0.644 1.433,1.434 z m 30.96,-31.538 c 1.084,1.427 2.702,2.3 3.823,2.766 -1.07,0.747 -2.339,1.155 -3.672,1.162 -0.011,0 -0.022,0 -0.034,0 -1.378,0 -2.656,-0.436 -3.709,-1.172 1.055,-0.466 2.572,-1.338 3.592,-2.756 z m 5.314,10.275 c -0.713,0.821 -3.802,3.913 -10.478,5.052 l -0.006,-4.52 c 5.308,-0.841 8.652,-2.836 10.478,-4.323 z m -10.475,7.075 c 5.312,-0.844 8.654,-2.843 10.479,-4.33 l 0.005,3.789 c -0.689,0.8 -3.771,3.915 -10.477,5.062 z M 50.07,42.783 c 0.015,0 0.03,0 0.045,0 1.319,-0.007 2.587,-0.32 3.735,-0.892 -1.602,1.262 -4.509,2.968 -9.069,3.747 l -0.007,-4.717 c 1.455,1.163 3.295,1.862 5.296,1.862 z m 5.21,13.63 0.005,3.177 h -5.834 c 2.708,-0.959 4.612,-2.183 5.829,-3.177 z M 60.054,9.854 c 1.281,1.055 2.048,2.641 2.048,4.32 0,0.036 0,0.072 -10e-4,0.107 -1.173,-0.714 -2.455,-1.343 -3.804,-1.863 0.332,-1 0.942,-1.892 1.757,-2.564 z m -20.039,0 c 0.828,0.683 1.441,1.593 1.769,2.613 -0.258,0.121 -0.516,0.243 -0.768,0.375 -1.067,0.487 -2.092,1.04 -3.035,1.705 -0.009,-0.124 -0.014,-0.248 -0.014,-0.373 0,-1.68 0.767,-3.266 2.048,-4.32 z m -5.406,14.442 c 1.482,-3.935 4.371,-7.058 7.968,-8.887 0.458,-0.197 0.922,-0.384 1.405,-0.542 0.179,-0.059 0.336,-0.152 0.475,-0.265 1.757,-0.633 3.636,-0.985 5.578,-0.985 2.026,0 3.985,0.38 5.807,1.067 0.083,0.046 0.158,0.103 0.251,0.133 0.215,0.07 0.42,0.156 0.632,0.232 3.952,1.76 7.149,5.037 8.736,9.248 -1.27,3.365 -3.616,6.198 -6.623,8.107 l 0.688,-4.896 c 0.077,-0.547 -0.305,-1.053 -0.852,-1.129 -0.549,-0.081 -1.052,0.305 -1.129,0.851 l -0.892,6.354 c -0.051,0.022 -0.098,0.051 -0.148,0.073 l 0.104,0.243 -0.029,0.205 c -0.007,0.048 -0.01,0.096 -0.01,0.145 0.007,1.391 -0.426,2.713 -1.225,3.821 -0.647,-0.204 -2.854,-1.001 -3.932,-2.621 1.057,-0.002 1.914,-0.859 1.914,-1.916 0,-1.059 -0.859,-1.917 -1.918,-1.917 h -2.75 c -1.059,0 -1.916,0.858 -1.916,1.917 0,0.998 0.765,1.808 1.738,1.898 -1.004,1.635 -3.083,2.442 -3.679,2.644 -0.766,-1.06 -1.225,-2.355 -1.233,-3.759 0,-0.048 -0.004,-0.096 -0.011,-0.143 l -1.035,-6.875 c -0.082,-0.546 -0.597,-0.924 -1.138,-0.84 -0.546,0.082 -0.922,0.591 -0.84,1.138 l 0.728,4.835 c -3.024,-1.911 -5.39,-4.761 -6.664,-8.136 z m 48.637,45.528 c -0.789,0 -1.432,-0.643 -1.432,-1.432 0,-0.79 0.643,-1.434 1.432,-1.434 0.79,0 1.434,0.644 1.434,1.434 0,0.79 -0.644,1.432 -1.434,1.432 z"
       id="path2"
       inkscape:connector-curvature="0"
       style="fill:#aa0000" /><path
       d="m 70.652,64.959 c -11.064,0 -18.431,2.896 -20.624,3.884 -2.193,-0.988 -9.559,-3.884 -20.624,-3.884 -0.829,0 -1.5,0.672 -1.5,1.5 0,0.828 0.671,1.5 1.5,1.5 0.481,0 0.943,0.016 1.41,0.027 -0.001,0.024 -0.007,0.048 -0.007,0.073 l 0.047,25.533 c 0.001,0.827 0.673,1.497 1.5,1.497 10e-4,0 0.002,0 0.003,0 0.828,-0.002 1.499,-0.675 1.497,-1.503 L 33.807,68.125 c 7.594,0.581 12.81,2.52 14.722,3.337 V 93.59 c 0,0.828 0.671,1.5 1.5,1.5 0.829,0 1.5,-0.672 1.5,-1.5 V 71.463 c 1.955,-0.836 7.364,-2.834 15.224,-3.366 L 66.8,93.542 c 0.002,0.827 0.673,1.497 1.5,1.497 0.001,0 0.002,0 0.003,0 0.828,-0.002 1.499,-0.675 1.497,-1.503 L 69.753,68.003 c 0,-0.009 -0.003,-0.018 -0.003,-0.026 0.303,-0.005 0.595,-0.018 0.903,-0.018 0.828,0 1.5,-0.672 1.5,-1.5 0,-0.828 -0.673,-1.5 -1.501,-1.5 z"
       id="path4"
       inkscape:connector-curvature="0"
       style="fill:#aa0000" /><path
       d="m 56.234,24.076 c 0.231,0 0.462,-0.033 0.685,-0.098 0.838,-0.244 1.491,-0.927 1.707,-1.783 0.044,-0.175 -0.01,-0.36 -0.141,-0.484 -0.638,-0.606 -1.558,-0.836 -2.396,-0.591 -0.839,0.244 -1.492,0.928 -1.705,1.785 -0.043,0.174 0.011,0.358 0.141,0.482 0.465,0.444 1.073,0.689 1.709,0.689 z"
       id="path6"
       inkscape:connector-curvature="0"
       style="fill:#aa0000" /><path
       d="m 43.149,23.978 c 0.224,0.065 0.454,0.098 0.685,0.098 0.637,0 1.244,-0.245 1.71,-0.69 0.13,-0.124 0.183,-0.308 0.14,-0.482 -0.213,-0.856 -0.866,-1.541 -1.705,-1.785 -0.838,-0.245 -1.759,-0.015 -2.396,0.591 -0.13,0.124 -0.184,0.309 -0.14,0.484 0.215,0.856 0.869,1.54 1.706,1.784 z"
       id="path8"
       inkscape:connector-curvature="0"
       style="fill:#aa0000" /></g></svg>