<?xml version="1.0" encoding="UTF-8" standalone="no"?>
<svg
   xmlns:dc="http://purl.org/dc/elements/1.1/"
   xmlns:cc="http://creativecommons.org/ns#"
   xmlns:rdf="http://www.w3.org/1999/02/22-rdf-syntax-ns#"
   xmlns:svg="http://www.w3.org/2000/svg"
   xmlns="http://www.w3.org/2000/svg"
   xmlns:sodipodi="http://sodipodi.sourceforge.net/DTD/sodipodi-0.dtd"
   xmlns:inkscape="http://www.inkscape.org/namespaces/inkscape"
   version="1.1"
   x="0px"
   y="0px"
   viewBox="0 0 100 100"
   style="enable-background:new 0 0 100 100;"
   xml:space="preserve"
   id="svg12"
   sodipodi:docname="param.svg"
   inkscape:version="0.92.3 (2405546, 2018-03-11)"><metadata
     id="metadata18"><rdf:RDF><cc:Work
         rdf:about=""><dc:format>image/svg+xml</dc:format><dc:type
           rdf:resource="http://purl.org/dc/dcmitype/StillImage" /><dc:title></dc:title></cc:Work></rdf:RDF></metadata><defs
     id="defs16" /><sodipodi:namedview
     pagecolor="#ffffff"
     bordercolor="#666666"
     borderopacity="1"
     objecttolerance="10"
     gridtolerance="10"
     guidetolerance="10"
     inkscape:pageopacity="0"
     inkscape:pageshadow="2"
     inkscape:window-width="920"
     inkscape:window-height="480"
     id="namedview14"
     showgrid="false"
     inkscape:zoom="2.36"
     inkscape:cx="3.8135593"
     inkscape:cy="48.09322"
     inkscape:window-x="0"
     inkscape:window-y="27"
     inkscape:window-maximized="0"
     inkscape:current-layer="svg12" /><g
     id="g10"
     style="fill:#ffffff"><path
       d="m 77.6,17.3 -2.1,2.1 c -0.4,0.4 -0.4,1 0,1.4 0.2,0.2 0.5,0.3 0.7,0.3 0.3,0 0.5,-0.1 0.7,-0.3 L 79,18.7 c 0.4,-0.4 0.4,-1 0,-1.4 -0.3,-0.4 -1,-0.4 -1.4,0 z"
       id="path2"
       inkscape:connector-curvature="0"
       style="fill:#ffffff" /><path
       d="M 72.4,22.6 39.8,55.5 c -0.4,0.4 -0.4,1 0,1.4 0.2,0.2 0.5,0.3 0.7,0.3 0.3,0 0.5,-0.1 0.7,-0.3 L 73.8,24 c 0.4,-0.4 0.4,-1 0,-1.4 -0.4,-0.4 -1,-0.4 -1.4,0 z"
       id="path4"
       inkscape:connector-curvature="0"
       style="fill:#ffffff" /><path
       d="M 22.4,17.4 C 22,17 21.4,17 21,17.4 c -0.4,0.4 -0.4,1 0,1.4 l 2.1,2.1 c 0.2,0.2 0.5,0.3 0.7,0.3 0.3,0 0.5,-0.1 0.7,-0.3 0.4,-0.4 0.4,-1 0,-1.4 z"
       id="path6"
       inkscape:connector-curvature="0"
       style="fill:#ffffff" /><path
       d="m 91.4,79.2 c -0.2,-1.4 -1,-2.5 -2.3,-3.1 l -1.5,-0.7 c -0.1,-0.1 -0.3,-0.2 -0.4,-0.3 l -9.4,-9.5 v 0 c 0,0 -0.1,-0.1 -0.3,-0.3 -0.2,-0.2 -0.5,-0.5 -0.8,-0.8 -2.1,-2.1 -3.2,-4.2 -3.4,-4.7 l 1.5,-1.5 c 0.7,-0.2 1.3,-0.6 1.8,-1.1 1.8,-1.8 1.8,-4.7 0,-6.5 -0.9,-0.9 -2,-1.3 -3.2,-1.3 0,0 0,0 0,0 -1.2,0 -2.4,0.5 -3.2,1.3 0,0 0,0 0,0 -0.5,0.5 -0.9,1.2 -1.1,1.9 L 67.7,54 60.5,46.8 84.4,22.7 c 0.2,-0.2 0.3,-0.5 0.3,-0.8 L 84,13.4 c 0,-0.5 -0.4,-0.9 -0.9,-0.9 l -8.5,-0.8 c -0.3,0 -0.6,0.1 -0.8,0.3 L 50,35.9 26.2,11.9 C 26,11.7 25.7,11.6 25.4,11.6 l -8.5,0.8 c -0.5,0 -0.9,0.4 -0.9,0.9 l -0.7,8.5 c 0,0.3 0.1,0.6 0.3,0.8 l 23.8,24.1 -7.2,7.2 -1.4,-1.4 c -0.2,-0.7 -0.6,-1.3 -1.1,-1.9 -0.9,-0.9 -2,-1.3 -3.2,-1.3 -1.2,0 -2.4,0.5 -3.2,1.3 -1.8,1.8 -1.8,4.7 0,6.5 0.5,0.5 1.1,0.9 1.8,1.1 l 1.5,1.5 c -0.3,0.6 -1.6,2.9 -3.4,4.7 -0.3,0.3 -0.5,0.5 -0.7,0.8 -0.1,0.1 -0.2,0.2 -0.2,0.2 v 0 L 12.7,75 c -0.1,0.1 -0.2,0.2 -0.4,0.3 l -1.5,0.8 c -1.2,0.6 -2,1.8 -2.3,3.1 -0.2,1.4 0.2,2.7 1.2,3.7 l 4.3,4.4 c 0.8,0.8 1.9,1.3 3,1.3 0.2,0 0.4,0 0.7,-0.1 1.4,-0.2 2.5,-1 3.1,-2.3 l 0.7,-1.5 c 0.1,-0.1 0.2,-0.3 0.3,-0.4 l 9.4,-9.5 v 0 c 0,0 0.1,-0.1 0.3,-0.3 0.2,-0.2 0.5,-0.5 0.8,-0.8 2,-2.1 4.1,-3.2 4.6,-3.4 l 1.5,1.5 c 0.2,0.7 0.6,1.3 1.1,1.9 0.9,0.9 2,1.3 3.2,1.3 1.2,0 2.4,-0.5 3.2,-1.3 1.8,-1.8 1.8,-4.7 0,-6.5 -0.5,-0.5 -1.1,-0.9 -1.8,-1.1 l -1.4,-1.4 7.2,-7.2 7.2,7.2 -1.3,1.3 c -0.7,0.2 -1.3,0.6 -1.8,1.1 -1.8,1.8 -1.8,4.7 0,6.5 0.9,0.9 2,1.3 3.2,1.3 1.2,0 2.4,-0.5 3.2,-1.3 0.5,-0.5 0.9,-1.2 1.1,-1.9 l 1.4,-1.5 c 0.6,0.3 2.8,1.6 4.7,3.4 0.3,0.3 0.5,0.6 0.8,0.8 0.1,0.1 0.2,0.2 0.2,0.2 v 0 l 9.6,9.6 c 0.1,0.1 0.2,0.2 0.3,0.4 l 0.7,1.5 c 0.6,1.2 1.8,2.1 3.1,2.3 0.2,0 0.5,0.1 0.7,0.1 1.1,0 2.2,-0.4 3,-1.3 l 4.3,-4.4 c 0.9,-0.9 1.4,-2.3 1.1,-3.6 z m -12.5,3 -1.6,-1.6 0.5,-6 5.8,-0.5 1.7,1.7 z m -3.4,-3.5 -3.6,-3.6 3.9,-0.3 z m 2.5,-6.1 0.3,-3.8 3.4,3.5 z M 17.3,21.5 17.9,14.3 25,13.7 48.5,37.4 45.3,40.6 27.7,22.6 c -0.4,-0.4 -1,-0.4 -1.4,0 -0.4,0.4 -0.4,1 0,1.4 L 44,42 40.8,45.2 Z m 4.5,47.2 0.3,3.9 -3.9,-0.3 z M 17.4,86.4 C 16.7,86.5 16,86.3 15.5,85.8 l -4.3,-4.4 c -0.5,-0.5 -0.7,-1.2 -0.6,-1.9 0.1,-0.7 0.5,-1.3 1.2,-1.6 l 1.5,-0.7 6.6,6.6 -0.9,1.4 c -0.3,0.7 -0.9,1.1 -1.6,1.2 z m 3.7,-4.2 -6.3,-6.4 1.6,-1.6 5.9,0.5 0.5,5.8 z m 3.2,-7.3 3.7,0.3 -3.4,3.5 z m 6.8,-2.8 c -0.1,0 -0.1,0.1 -0.2,0.1 l -1.1,1.1 -5.8,-0.5 -0.5,-6 1,-1 c 0,0 0.1,-0.1 0.1,-0.2 0.2,-0.2 0.3,-0.3 0.5,-0.5 l 6.4,6.4 c -0.1,0.3 -0.2,0.4 -0.4,0.6 z m 2.1,-1.8 -6.7,-6.7 c 0.7,-1 1.2,-1.8 1.6,-2.4 l 7.5,7.6 c -0.6,0.3 -1.5,0.8 -2.4,1.5 z m 10.2,-2.4 c 0.5,0.1 0.9,0.3 1.2,0.7 1,1 1,2.6 0,3.6 -1,1 -2.6,1 -3.6,0 -0.3,-0.3 -0.5,-0.7 -0.7,-1.2 0,-0.2 -0.1,-0.3 -0.3,-0.5 L 26.4,56.6 C 26.3,56.5 26.1,56.4 25.9,56.3 25.4,56.2 25,56 24.7,55.6 c -1,-1 -1,-2.6 0,-3.6 0.5,-0.5 1.1,-0.7 1.8,-0.7 0.7,0 1.3,0.3 1.8,0.7 0.3,0.3 0.5,0.7 0.7,1.2 0,0.2 0.1,0.3 0.3,0.5 l 6.9,7 4.5,4.6 c 0,0 0,0 0,0 l 2.3,2.3 c 0.1,0.1 0.3,0.2 0.4,0.3 z M 33.6,55.3 75,13.6 l 7.1,0.6 0.6,7.2 -41.3,41.7 z m 17.8,0.6 3.2,-3.2 4.2,4.2 c 0.2,0.2 0.5,0.3 0.7,0.3 0.3,0 0.5,-0.1 0.7,-0.3 0.4,-0.4 0.4,-1 0,-1.4 l -4.2,-4.2 3.2,-3.2 7.2,7.2 -7.8,7.8 z m 8.5,14.6 c -0.1,0.1 -0.2,0.3 -0.3,0.5 -0.1,0.5 -0.3,0.9 -0.7,1.2 -1,1 -2.6,1 -3.6,0 -1,-1 -1,-2.6 0,-3.6 0.3,-0.3 0.7,-0.5 1.2,-0.7 0.2,0 0.3,-0.1 0.5,-0.3 l 2.3,-2.3 c 0,0 0,0 0,0 L 68.5,56 c 0,0 0,0 0,0 l 2.3,-2.3 c 0.1,-0.1 0.2,-0.3 0.3,-0.5 0.1,-0.5 0.3,-0.9 0.7,-1.2 0.5,-0.5 1.1,-0.7 1.8,-0.7 0.7,0 1.3,0.3 1.8,0.7 1,1 1,2.6 0,3.6 -0.3,0.3 -0.7,0.5 -1.2,0.7 -0.2,0 -0.3,0.1 -0.5,0.3 z m 12,-9.3 c 0.3,0.6 0.8,1.4 1.6,2.4 l -6.7,6.7 C 65.9,69.6 65,69.1 64.4,68.7 Z m -3.5,10.4 6.4,-6.4 c 0.1,0.2 0.3,0.3 0.5,0.5 0,0.1 0.1,0.1 0.1,0.2 l 1.1,1.1 -0.5,5.8 -6,0.4 -1,-1 c 0,-0.1 -0.1,-0.1 -0.2,-0.1 -0.1,-0.2 -0.2,-0.3 -0.4,-0.5 z m 20.4,9.8 -4.3,4.4 C 84,86.3 83.3,86.5 82.6,86.4 81.9,86.3 81.3,85.9 81,85.2 l -0.7,-1.5 6.6,-6.6 1.5,0.7 c 0.6,0.3 1.1,0.9 1.2,1.6 0,0.8 -0.3,1.5 -0.8,2 z"
       id="path8"
       inkscape:connector-curvature="0"
       style="fill:#ffffff" /></g></svg>